<?xml version="1.0" encoding="UTF-8" standalone="no"?>
<svg
   height="128px"
   viewBox="0 0 128 128"
   width="128px"
   version="1.1"
   id="svg2"
   sodipodi:docname="ca.footeware.java.texty3a.svg"
   inkscape:version="1.4 (e7c3feb100, 2024-10-09)"
   xmlns:inkscape="http://www.inkscape.org/namespaces/inkscape"
   xmlns:sodipodi="http://sodipodi.sourceforge.net/DTD/sodipodi-0.dtd"
   xmlns="http://www.w3.org/2000/svg"
   xmlns:svg="http://www.w3.org/2000/svg">
  <defs
     id="defs2" />
  <sodipodi:namedview
     id="namedview2"
     pagecolor="#ffffff"
     bordercolor="#111111"
     borderopacity="1"
     inkscape:showpageshadow="0"
     inkscape:pageopacity="0"
     inkscape:pagecheckerboard="1"
     inkscape:deskcolor="#d1d1d1"
     inkscape:zoom="8.5078125"
     inkscape:cx="63.94123"
     inkscape:cy="64"
     inkscape:window-width="2304"
     inkscape:window-height="1355"
     inkscape:window-x="0"
     inkscape:window-y="0"
     inkscape:window-maximized="1"
     inkscape:current-layer="g2" />
  <g
     stroke="#808080"
     stroke-width="1.53666"
     id="g2">
    <path
       d="m 109.832031 20.558594 c -3.851562 -3.839844 -9.074219 -6 -14.519531 -6 s -10.667969 2.160156 -14.515625 6 l -12.671875 12.632812 c -0.972656 0.960938 -1.519531 2.269532 -1.519531 3.632813 s 0.546875 2.671875 1.519531 3.632812 l 21.75 21.683594 c 0.964844 0.96875 2.273438 1.511719 3.644531 1.511719 c 1.367188 0 2.675781 -0.542969 3.640625 -1.511719 l 12.671875 -12.375 c 3.929688 -3.847656 6.148438 -9.109375 6.148438 -14.605469 c 0 -5.492187 -2.21875 -10.753906 -6.148438 -14.601562 z m 0 0"
       fill="#ff5900"
       id="path1"
       style="fill:#ff7800;fill-opacity:1" />
    <path
       d="m 82.695312 69.300781 l -21.753906 -21.683593 c -0.960937 -0.96875 -2.273437 -1.515626 -3.640625 -1.515626 c -1.367187 0 -2.679687 0.546876 -3.640625 1.515626 l -38.324218 38.203124 c -0.957032 0.964844 -1.492188 2.273438 -1.484376 3.632813 v 21.683594 c 0 2.824219 2.296876 5.113281 5.128907 5.113281 h 21.75 c 1.453125 0.082031 2.867187 -0.457031 3.898437 -1.480469 l 38.320313 -38.207031 c 0.9375 -0.992188 1.441406 -2.320312 1.390625 -3.683594 c -0.046875 -1.363281 -0.640625 -2.652344 -1.644532 -3.578125 z m 0 0"
       id="path2" />
  </g>
</svg>
